@startuml
' settings - to make it look nicer


' initiallising all of my classes
class Form <<builtin>>
class FirstRunWindow
class firstRun
class Form1 
class NameForm
class SQL
class table
class staff
class category
class item
class rowOfItem
class tableForm
class tableNumberForm
class program
class AbstractValidator <<builtin>>
class ConnectionSettings
class ConnectionSettingsValidator
class logger
class sync



'joining lines
Form1 --|> Form
tableNumberForm --|> Form
NameForm --|> Form
tableForm --|> Form
FirstRunWindow --|> Form
rowOfItem --|> item
ConnectionSettingsValidator --|> AbstractValidator
program --> Form1 : already setup 
program --> FirstRunWindow : not setup before


'notes


@enduml